<svg width="58" height="71" viewBox="0 0 58 71" fill="none" xmlns="http://www.w3.org/2000/svg">
<g clip-path="url(#clip0_415_7)">
<path d="M55.9658 24.5874C55.5598 24.9024 48.3918 28.9414 48.3918 37.9224C48.3918 48.3104 57.5128 51.9854 57.7858 52.0764C57.7438 52.3004 56.3368 57.1094 52.9768 62.0094C49.9808 66.3214 46.8518 70.6264 42.0918 70.6264C37.3318 70.6264 36.1068 67.8614 30.6118 67.8614C25.2568 67.8614 23.3528 70.7174 18.9988 70.7174C14.6448 70.7174 11.6068 66.7274 8.11383 61.8274C4.06783 56.0734 0.798828 47.1344 0.798828 38.6504C0.798828 25.0424 9.64683 17.8254 18.3548 17.8254C22.9818 17.8254 26.8388 20.8634 29.7438 20.8634C32.5088 20.8634 36.8208 17.6434 42.0848 17.6434C44.0798 17.6434 51.2478 17.8254 55.9658 24.5874ZM39.5858 11.8824C41.7628 9.29937 43.3028 5.71537 43.3028 2.13137C43.3028 1.63437 43.2608 1.13037 43.1698 0.724365C39.6278 0.857365 35.4138 3.08337 32.8728 6.03037C30.8778 8.29837 29.0158 11.8824 29.0158 15.5154C29.0158 16.0614 29.1068 16.6074 29.1488 16.7824C29.3728 16.8244 29.7368 16.8734 30.1008 16.8734C33.2788 16.8734 37.2758 14.7454 39.5858 11.8824Z" fill="black"/>
</g>
<defs>
<clipPath id="clip0_415_7">
<rect width="56.98" height="70" fill="white" transform="translate(0.798828 0.724365)"/>
</clipPath>
</defs>
</svg>
