<svg width="212" height="31" viewBox="0 0 212 31" fill="none" xmlns="http://www.w3.org/2000/svg">
<g clip-path="url(#clip0_355_6829)">
<path d="M105.193 30.3919V10.3099H106.911V14.6843C107.484 13.0083 108.955 9.85742 113.7 9.85742C117.135 9.85742 119.51 11.8619 120.367 15.0519C121.062 13.1301 122.825 9.85742 127.565 9.85742C131.778 9.85742 134.764 12.5569 134.764 18.6922V30.3919H133.005V19.2263C133.005 13.7458 130.959 11.6183 127.237 11.6183C123.394 11.6183 121.266 14.9313 120.899 18.6944V30.3919H119.101V19.2263C119.101 13.7458 117.056 11.6183 113.376 11.6183C109.122 11.6183 106.995 15.586 106.995 19.7582V30.3919H105.193Z" fill="#152828"/>
<path d="M158.81 21.2297H141.019C141.428 25.6476 144.986 29.1236 149.567 29.1236C152.634 29.1236 154.148 28.1828 156.438 26.4655L157.543 27.7739C155.084 29.7784 152.757 30.841 149.567 30.841C143.718 30.841 139.176 26.1381 139.176 20.3715C139.176 14.5614 143.675 9.85962 149.567 9.85962C155.459 9.85962 158.933 14.2362 158.933 19.8039C158.933 20.3302 158.891 20.9414 158.81 21.2297ZM157.174 19.4307C157.011 15.0139 154.269 11.6183 149.567 11.6183C145.027 11.6183 141.469 15.0541 141.019 19.4307H157.174Z" fill="#152828"/>
<path d="M182.982 30.3918H181.264V25.4431C180.568 27.242 177.787 30.8409 172.471 30.8409C166.744 30.8409 162.246 26.1794 162.246 20.3715C162.246 14.5635 166.744 9.90088 172.471 9.85954C177.624 9.85954 180.242 13.3367 181.186 15.054V0.698486H182.986L182.982 30.3918ZM164.005 20.3715C164.005 25.1972 167.727 29.1236 172.594 29.1236C177.42 29.1236 181.141 25.1972 181.141 20.3715C181.141 15.5043 177.42 11.578 172.594 11.578C167.727 11.578 164.005 15.5043 164.005 20.3715Z" fill="#152828"/>
<path d="M190.181 0.494282C190.396 0.494282 190.608 0.536593 190.807 0.618799C191.005 0.701004 191.186 0.821495 191.338 0.973392C191.489 1.12529 191.61 1.30562 191.692 1.50408C191.774 1.70254 191.817 1.91525 191.817 2.13007C191.817 2.34488 191.774 2.55759 191.692 2.75605C191.61 2.95451 191.489 3.13484 191.338 3.28674C191.186 3.43864 191.005 3.55913 190.807 3.64133C190.608 3.72354 190.396 3.76585 190.181 3.76585C189.965 3.7687 189.751 3.72834 189.551 3.64715C189.352 3.56595 189.17 3.44557 189.018 3.2931C188.865 3.14063 188.745 2.95917 188.664 2.75941C188.583 2.55966 188.542 2.34567 188.545 2.13007C188.542 1.91446 188.583 1.70047 188.664 1.50072C188.745 1.30097 188.865 1.1195 189.018 0.967032C189.17 0.814564 189.352 0.69418 189.551 0.612985C189.751 0.531789 189.965 0.491428 190.181 0.494282ZM189.281 30.392V10.3101H191.04V30.392H189.281Z" fill="#152828"/>
<path d="M204.209 11.6183C200.857 11.6183 199.097 13.1726 197.829 14.9704L196.275 14.0296C197.747 11.8619 199.955 9.85742 204.208 9.85742C208.666 9.85742 211.652 12.8027 211.652 16.9335V30.3919H209.941V26.5058C208.673 28.9192 206.015 30.841 202.047 30.841C198.285 30.841 195.381 28.8376 195.381 25.1974C195.381 21.966 197.63 20.0442 201.311 19.471L207.855 18.49C209.614 18.2442 209.9 17.5905 209.9 16.8944C209.894 13.8687 207.645 11.6183 204.209 11.6183ZM209.894 19.8799L201.755 21.109C198.524 21.5995 197.174 23.1124 197.174 25.1571C197.174 27.898 199.425 29.1248 202.202 29.1248C206.783 29.1248 209.891 26.2197 209.891 22.4576L209.894 19.8799Z" fill="#152828"/>
<path d="M62.3574 15.0532H64.7675C65.1764 15.0533 65.5813 14.9729 65.9591 14.8166C66.3369 14.6602 66.6802 14.4309 66.9694 14.1418C67.2586 13.8528 67.488 13.5095 67.6445 13.1318C67.801 12.754 67.8815 12.3492 67.8815 11.9403V10.2866H62.3574V15.0532Z" fill="#0EB1D2"/>
<path d="M-0.0078125 30.4085V10.2864H1.82909C2.62693 10.2867 3.39199 10.6038 3.95605 11.1681C4.5201 11.7323 4.83697 12.4975 4.83697 13.2954C5.73084 11.7311 7.29511 9.8562 10.503 9.8562C13.5109 9.8562 15.2304 11.0674 16.7601 13.2954C17.854 11.5758 20.0428 9.8562 23.2853 9.8562C27.5837 9.8562 30.748 12.2786 30.748 18.6832V30.4085H25.5848V19.824C25.5848 16.3859 24.3736 14.8228 21.9512 14.8228C19.568 14.8228 18.1612 16.6206 17.9288 19.3949V30.413H12.8081V19.824C12.8081 16.3859 11.5578 14.8228 9.09626 14.8228C6.51744 14.8228 5.14982 16.9714 5.14982 20.0586V30.413L-0.0078125 30.4085Z" fill="#152828"/>
<path d="M42.5031 14.5057C40.0807 14.5057 38.674 15.5213 37.6192 16.9638L33.5554 14.6174C35.0013 11.9604 37.8147 9.85083 42.5031 9.85083C47.2697 9.85083 51.0206 12.5079 51.0206 16.9616V30.4032H46.2931V27.5953C45.121 29.5495 42.893 30.8356 39.8852 30.8356C35.9745 30.8356 32.8906 28.5294 32.8906 24.8958C32.8906 21.2231 35.3141 19.6208 39.065 19.0354L44.2998 18.2532C45.5121 18.0588 45.902 17.5895 45.902 16.8867C45.902 15.8018 44.769 14.5057 42.5031 14.5057ZM45.902 21.6175L40.8617 22.3594C38.9086 22.6332 38.0483 23.3371 38.0483 24.5874C38.0483 25.9148 39.1421 26.5014 40.8617 26.5014C43.9098 26.5014 45.902 24.7427 45.902 22.1639V21.6175Z" fill="#152828"/>
<path d="M77.8429 14.5057C75.4205 14.5057 74.0138 15.5213 72.959 16.9638L68.8953 14.6174C70.3411 11.9604 73.1546 9.85083 77.8429 9.85083C82.6095 9.85083 86.3604 12.5079 86.3604 16.9616V30.4032H81.6329V27.5953C80.4609 29.5495 78.234 30.8356 75.225 30.8356C71.3143 30.8356 68.2305 28.5294 68.2305 24.8958C68.2305 21.2231 70.654 19.6208 74.4049 19.0354L79.6407 18.2532C80.8519 18.0588 81.2419 17.5895 81.2419 16.8867C81.2419 15.8018 80.1055 14.5057 77.8429 14.5057ZM81.2419 21.6175L76.2016 22.3594C74.2485 22.6332 73.3892 23.3371 73.3892 24.5874C73.3892 25.9148 74.4831 26.5014 76.2016 26.5014C79.2497 26.5014 81.2419 24.7427 81.2419 22.1639V21.6175Z" fill="#152828"/>
<path d="M88.8379 30.4087V10.2865H93.5307V13.9201C94.5475 11.7313 96.2269 9.89771 100.838 9.89771V15.3291C95.6023 15.3291 93.9609 17.7124 93.9609 20.994V30.4109L88.8379 30.4087Z" fill="#152828"/>
<path d="M63.7607 25.8375C62.1964 25.8375 61.0645 25.1335 61.0645 23.1413V4.65942H56.4924L56.1415 8.41033C56.0298 9.69974 55.4767 10.2863 54.1873 10.2863H52.623V15.0529H55.9047V23.5704C55.9047 28.4543 58.8343 30.7996 62.8199 30.7996C64.1359 30.8119 65.4487 30.6675 66.7306 30.3694V25.5224C65.758 25.753 64.76 25.8588 63.7607 25.8375Z" fill="#152828"/>
</g>
<defs>
<clipPath id="clip0_355_6829">
<rect width="211.659" height="30.347" fill="white" transform="translate(-0.0078125 0.494141)"/>
</clipPath>
</defs>
</svg>
